<?xml version="1.0" encoding="UTF-8"?>
<svg width="36px" height="36px" viewBox="0 0 36 36" version="1.1" xmlns="http://www.w3.org/2000/svg" xmlns:xlink="http://www.w3.org/1999/xlink">
    <title>tlg</title>
    <g id="Symbols" stroke="none" stroke-width="1" fill="none" fill-rule="evenodd">
        <path d="M18,0 C27.9411255,0 36,8.0588745 36,18 C36,27.9411255 27.9411255,36 18,36 C8.0588745,36 0,27.9411255 0,18 C0,8.0588745 8.0588745,0 18,0 Z M18,2 C9.163444,2 2,9.163444 2,18 C2,26.836556 9.163444,34 18,34 C26.836556,34 34,26.836556 34,18 C34,9.163444 26.836556,2 18,2 Z M25.3595314,10.8358844 C25.5084344,10.8335041 25.8413702,10.8704067 26.0570321,11.0454015 C26.2391327,11.1931636 26.2892359,11.3927692 26.3132118,11.5328638 L26.3254145,11.6166796 L26.3254145,11.6166796 L26.3461521,11.8461871 C26.3536464,11.9746545 26.3551771,12.1167809 26.3433105,12.241464 L26.3121335,12.5500678 L26.3121335,12.5500678 L26.2319438,13.2465333 L26.2319438,13.2465333 L26.1303956,14.0359164 L26.1303956,14.0359164 L26.0103959,14.902905 L26.0103959,14.902905 L25.8021589,16.3154036 L25.8021589,16.3154036 L25.4870613,18.3274438 L25.4870613,18.3274438 L25.1504835,20.3742923 L25.1504835,20.3742923 L24.8156814,22.3334543 L24.8156814,22.3334543 L24.4351049,24.4724838 L24.4351049,24.4724838 L24.304,25.1825496 L24.304,25.1825496 C24.0516749,26.5314363 23.5548481,26.9837112 23.0738622,27.0279722 C22.3552229,27.0941025 21.7554779,26.7427913 21.1218305,26.3011091 L20.5927271,25.926202 C20.4720899,25.8413569 20.3489544,25.7564731 20.2224021,25.6735165 L19.3439145,25.0913967 L19.3439145,25.0913967 L17.0615892,23.5452648 C16.7948008,23.3658721 16.5129574,23.1778745 16.2054027,22.9752005 C15.1283338,22.2654281 15.127197,21.7493946 15.518911,21.2187974 L15.6475276,21.058973 L15.6475276,21.058973 L15.7956168,20.897025 C15.8216934,20.8697873 15.8484105,20.842409 15.8756829,20.8148641 L16.4081036,20.2954391 L16.4081036,20.2954391 L16.7027166,20.0022274 L16.7027166,20.0022274 L18.9279562,17.9244499 L18.9279562,17.9244499 L19.9743279,16.9297447 L19.9743279,16.9297447 L20.6734263,16.2467371 L20.6734263,16.2467371 L21.0204865,15.8953954 L21.0204865,15.8953954 L21.2935136,15.6051083 L21.2935136,15.6051083 L21.4264288,15.4524552 C21.5006159,15.3627444 21.5448939,15.2980762 21.5528842,15.2640128 C21.5640328,15.2164849 21.5743792,15.0393233 21.4691306,14.9457755 C21.363882,14.8522277 21.2085442,14.8842174 21.0964481,14.9096591 L21.0330437,14.9386947 L21.0330437,14.9386947 L20.7164794,15.1277038 L20.7164794,15.1277038 L19.4789958,15.927654 L19.4789958,15.927654 L17.8339914,17.0186188 L17.8339914,17.0186188 L13.5039439,19.9280228 L13.5039439,19.9280228 C12.7855749,20.4213104 12.1348985,20.6616567 11.5519149,20.6490617 C11.123453,20.639805 10.4311733,20.4813846 9.74494948,20.2882821 L9.23563384,20.138741 C9.15234274,20.1133299 9.07020046,20.0878241 8.98973409,20.0624472 L7.88397971,19.7086607 L7.88397971,19.7086607 L7.58739514,19.6024201 C7.07710616,19.4050068 6.76106031,19.1847634 6.80873569,18.8044671 C6.84937033,18.4803332 7.29573278,18.1488423 8.14782308,17.8099945 L16.0415532,14.3918249 L16.0415532,14.3918249 L18.6450198,13.2883978 L18.6450198,13.2883978 L21.3806212,12.161926 L21.3806212,12.161926 L22.5752653,11.68477 L22.5752653,11.68477 L23.0659132,11.4948695 L23.0659132,11.4948695 L23.7463266,11.2426079 L23.7463266,11.2426079 L24.1830279,11.0925385 L24.1830279,11.0925385 L24.5394378,10.9826099 L24.5394378,10.9826099 L24.8297521,10.9074216 L24.8297521,10.9074216 L25.0126524,10.87058 L25.0126524,10.87058 L25.1723483,10.847964 L25.1723483,10.847964 L25.3595314,10.8358844 L25.3595314,10.8358844 Z" id="tlg" fill="#ffffff" fill-rule="nonzero"></path>
    </g>
</svg>
