<?xml version="1.0" encoding="UTF-8"?>
<svg width="35px" height="35px" viewBox="0 0 35 35" version="1.1" xmlns="http://www.w3.org/2000/svg" xmlns:xlink="http://www.w3.org/1999/xlink">
    <title>wa</title>
    <g id="Symbols" stroke="none" stroke-width="1" fill="none" fill-rule="evenodd">
        <path d="M25.5182209,20.9738862 C25.0827912,20.7570879 22.9420746,19.708772 22.5429098,19.5640734 C22.143745,19.4194581 21.8534585,19.3471919 21.563172,19.7808717 C21.2728855,20.2147179 20.4384581,21.1908509 20.184353,21.4801648 C19.930415,21.7692292 19.6763934,21.8055701 19.2410473,21.5886055 C18.805534,21.3716409 17.4024826,20.9140941 15.7393099,19.4375869 C14.4448026,18.2885642 13.570935,16.8695206 13.3169134,16.4355913 C13.0629754,16.0018284 13.2899236,15.7673169 13.5079309,15.5511839 C13.7037949,15.3570051 13.9433607,15.0449885 14.1610338,14.7920156 C14.3787904,14.5389594 14.4513202,14.3580863 14.5964635,14.069105 C14.7416067,13.7797911 14.6690769,13.526735 14.5601986,13.3098535 C14.4513202,13.092972 13.5804608,10.9598329 13.2176445,10.0920575 C12.8641868,9.24723426 12.5052142,9.36166252 12.2379067,9.34819059 C11.9842194,9.33563342 11.6935986,9.3329723 11.4033957,9.3329723 C11.1131092,9.3329723 10.641331,9.44141304 10.2422498,9.875176 C9.84308496,10.3091053 8.71820394,11.3575044 8.71820394,13.4904772 C8.71820394,15.6235332 10.2785147,17.6840736 10.4962713,17.9733043 C10.7139444,18.2626182 13.5666734,22.6396657 17.9347581,24.5168381 C18.9736561,24.9633246 19.7847704,25.230019 20.4170668,25.4296031 C21.4602264,25.7595823 22.4094649,25.7130127 23.1596641,25.6014119 C23.9962641,25.4770044 25.735894,24.5530959 26.0987939,23.5408715 C26.4616102,22.5284807 26.4616102,21.6608716 26.3527319,21.4801648 C26.2439372,21.2993748 25.9536507,21.1908509 25.5182209,20.9738862 M17.5731951,31.7701432 L17.567346,31.7701432 C14.9683043,31.7691453 12.4190642,31.0742597 10.1951221,29.7608294 L9.66627258,29.448397 L4.18416968,30.879582 L5.64738403,25.5601645 L5.3030344,25.0148007 C3.85310605,22.7196657 3.08736473,20.0671087 3.08844985,17.3432836 C3.09162628,9.39534235 9.58939763,2.9291474 17.5789608,2.9291474 C21.447776,2.93047796 25.084546,4.43193315 27.8192887,7.15667308 C30.5539478,9.88132984 32.0591091,13.5032007 32.0576896,17.3548428 C32.0544298,25.3034493 25.5566584,31.7701432 17.5731951,31.7701432 M29.9005943,5.08623664 C26.6104301,1.80798324 22.2349087,0.0018295217 17.573028,0 C7.96758692,0 0.149906147,7.77970838 0.1460624,17.3421193 C0.144809004,20.3989174 0.947233046,23.3825347 2.47228159,26.0128048 L0,35 L9.23819611,32.5881889 C11.7835925,33.9698936 14.6494404,34.6982095 17.5660926,34.6992075 L17.5731951,34.6992075 L17.5732787,34.6992075 C27.1777171,34.6992075 34.9961499,26.9186675 35,17.3560071 C35.0017484,12.7219118 33.1907585,8.36440688 29.9005943,5.08623664" id="wa" fill="#ffffff"></path>
    </g>
</svg>
